# xmcd CD database file
#
# Track frame offsets:
#	150
#	12512
#	21614
#	33798
#	47086
#	61275
#	76911
#	91755
#	105271
#	118194
#	131390
#	142703
#	153736
#	168438
#	181411
#	197053
#
# Disc length: 2789 seconds
#
# Revision: 0
# Processed by: cddbd v1.5.2PL0 Copyright (c) Steve Scherf et al.
# Submitted via: CDex 1.70beta2
#
DISCID=c90ae310
DTITLE=Chet Baker - This Time The Dream´s On Me
DYEAR=1953
DGENRE=Jazz
TTITLE0=This Time The Dream´s On Me
TTITLE1=Long Ago And Far Away
TTITLE2=Happy Little Sunbaem
TTITLE3=No Ties
TTITLE4=Easy To Love
TTITLE5=Isn´t It Romantic
TTITLE6=Moon Love
TTITLE7=Imagination
TTITLE8=Batter Up
TTITLE9=All The Things You Are
TTITLE10=Pavana For A Dead Princess
TTITLE11=Winter Wonderland
TTITLE12=Band Aid
TTITLE13=Russ Job
TTITLE14=Pro Defunctus
TTITLE15=The Thrill Is Gone
EXTD=YEAR: 1953
EXTT0=
EXTT1=
EXTT2=
EXTT3=
EXTT4=
EXTT5=
EXTT6=
EXTT7=
EXTT8=
EXTT9=
EXTT10=
EXTT11=
EXTT12=
EXTT13=
EXTT14=
EXTT15=
PLAYORDER=
